PathFileType	4	(X/Y/Z)	/Users/itak/Documents/Research/Walk-IL/dataset/trc/00439_00167.trc
DataRate	CameraRate	NumFrames	NumMarkers	Units	OrigDataRate	OrigDataStartFrame	OrigNumFrames
100.000000	100.000000	4	53	mm	100.000000	261	523
Frame#	Time	RPSI			LPSI			L3			STRN			T10			C7			CLAV			RBAK			LBAK			LSHO			LUPA			LAEL			LAOL			LWTS			LWPS			LFRA			LIFD			LHPS			LHTS			RSHO			RUPA			RAEL			RAOL			RWTS			RWPS			RFRA			RIFD			RHTS			RHPS			RBHD			LFHD			RFHD			LBHD			LHIP			RHIP			RASI			LASI			LKNE			LTHI			LANK			LTIP			LTOE			LMT1			LMT5			LHEE			RKNE			RTHI			RANK			RTIP			RTOE			RMT1			RMT5			RHEE			
		X1	Y1	Z1	X2	Y2	Z2	X3	Y3	Z3	X4	Y4	Z4	X5	Y5	Z5	X6	Y6	Z6	X7	Y7	Z7	X8	Y8	Z8	X9	Y9	Z9	X10	Y10	Z10	X11	Y11	Z11	X12	Y12	Z12	X13	Y13	Z13	X14	Y14	Z14	X15	Y15	Z15	X16	Y16	Z16	X17	Y17	Z17	X18	Y18	Z18	X19	Y19	Z19	X20	Y20	Z20	X21	Y21	Z21	X22	Y22	Z22	X23	Y23	Z23	X24	Y24	Z24	X25	Y25	Z25	X26	Y26	Z26	X27	Y27	Z27	X28	Y28	Z28	X29	Y29	Z29	X30	Y30	Z30	X31	Y31	Z31	X32	Y32	Z32	X33	Y33	Z33	X34	Y34	Z34	X35	Y35	Z35	X36	Y36	Z36	X37	Y37	Z37	X38	Y38	Z38	X39	Y39	Z39	X40	Y40	Z40	X41	Y41	Z41	X42	Y42	Z42	X43	Y43	Z43	X44	Y44	Z44	X45	Y45	Z45	X46	Y46	Z46	X47	Y47	Z47	X48	Y48	Z48	X49	Y49	Z49	X50	Y50	Z50	X51	Y51	Z51	X52	Y52	Z52	X53	Y53	Z53	

262	2.61	-32.91666030883789	940.6666259765625	181.465576171875	61.85195159912109	944.4894409179688	74.28656768798828	12.06734275817871	1045.987060546875	150.9818420410156	241.8449859619141	1236.1044921875	303.1985168457031	0.7759771347045898	1171.0947265625	140.3681945800781	57.08949661254883	1436.880126953125	188.7943420410156	217.7218627929688	1350.49169921875	276.8940124511719	-51.08868408203125	1322.353149414062	235.3524932861328	84.52947998046875	1389.80908203125	87.85828399658203	216.3710327148438	1405.286987304688	78.60881042480469	260.8067321777344	1284.80908203125	-8.112878799438477	288.8075866699219	1065.788208007812	-19.82136344909668	185.575927734375	1057.658325195312	-16.96318435668945	306.5216979980469	855.4449462890625	55.89754104614258	307.1156005859375	844.7579345703125	-17.51217460632324	304.3538513183594	976.5782470703125	-17.89607620239258	282.9453125	687.1578979492188	44.78446197509766	297.631103515625	762.59912109375	-16.77700233459473	308.844482421875	762.5631103515625	53.44865798950195	30.49115180969238	1409.667602539062	362.8795776367188	-24.71869468688965	1349.500366210938	419.8195495605469	-52.90830612182617	1064.39892578125	474.9717102050781	-82.10633850097656	1051.922241210938	414.2186279296875	33.15042114257812	847.7573852539062	476.3168029785156	-51.98957061767578	845.5565185546875	498.9024353027344	-60.01978302001953	1006.816101074219	484.3675231933594	0.9100117683410645	690.8909301757812	468.243896484375	23.80646514892578	745.9150390625	484.69580078125	-50.62409591674805	757.0441284179688	496.6708374023438	85.97260284423828	1634.816772460938	293.4433898925781	283.2573852539062	1643.866333007812	232.3531494140625	213.4508056640625	1652.704223632812	342.8033142089844	167.4060668945312	1627.796142578125	134.3599090576172	250.0164794921875	847.0731811523438	87.19918060302734	-34.06029891967773	839.4535522460938	367.125	82.25942993164062	886.5018920898438	388.7399597167969	260.0020141601562	890.9785766601562	207.1619262695312	296.2532958984375	434.5839233398438	208.2931365966797	307.869140625	588.7540283203125	174.0355682373047	207.4503784179688	28.71271896362305	159.8890380859375	284.6073913574219	275.7112731933594	196.7899017333984	324.9497375488281	40.19602966308594	363.9498901367188	252.2636871337891	45.89459609985352	335.1482849121094	327.0576171875	40.22756576538086	249.688232421875	134.9201049804688	32.28465270996094	160.5721740722656	17.88491439819336	469.2149353027344	435.7252807617188	-0.4842435419559479	714.2900390625	424.4714660644531	-252.9491119384766	237.3598022460938	194.0090942382812	-70.4769287109375	370.2197265625	378.3558044433594	-141.487060546875	61.25240707397461	217.3522338867188	-141.9869995117188	116.2862854003906	172.3851318359375	-223.9674224853516	117.7802276611328	240.2548065185547	-248.4015655517578	296.9289245605469	140.8834686279297	
263	2.62	-25.3157844543457	941.847412109375	186.7950897216797	68.55271148681641	945.6383056640625	78.88243865966797	19.83158683776855	1047.660278320312	155.0686492919922	249.5122222900391	1237.56787109375	307.7416076660156	8.995674133300781	1172.755249023438	144.2477874755859	65.35578918457031	1438.49267578125	192.9438171386719	225.4297943115234	1352.051635742188	281.7019348144531	-43.00341033935547	1324.00439453125	238.8188018798828	93.29444122314453	1391.605346679688	91.89615631103516	225.1248931884766	1407.104370117188	83.59627532958984	271.1243591308594	1286.915649414062	-2.594164848327637	302.2030639648438	1068.371337890625	-13.78203392028809	199.0034637451172	1058.72802734375	-12.38572406768799	322.8616638183594	859.2762451171875	63.41421890258789	324.0127868652344	847.9556274414062	-9.890975952148438	319.1017456054688	979.4188232421875	-11.16540908813477	305.4537048339844	690.4100952148438	53.73442459106445	317.5008544921875	765.795654296875	-8.497748374938965	328.5216674804688	766.8152465820312	61.73075103759766	37.94444274902344	1411.085205078125	366.9002075195312	-17.82833099365234	1351.067749023438	423.3607788085938	-48.90783309936523	1066.279052734375	477.5345764160156	-77.89785766601562	1054.468017578125	416.5358276367188	33.85977554321289	848.2921142578125	478.4940795898438	-51.37120819091797	847.3485107421875	500.4241943359375	-56.85149002075195	1008.783264160156	486.663330078125	-1.047343730926514	691.95263671875	468.6332092285156	22.74615287780762	746.4110717773438	485.9293212890625	-51.57303237915039	758.7888793945312	497.4545288085938	93.93930053710938	1636.293701171875	298.0984497070312	291.3550109863281	1645.399658203125	237.4032440185547	221.373779296875	1654.226684570312	347.7127380371094	175.6844940185547	1629.299072265625	139.1199798583984	256.2879638671875	847.6224365234375	89.93742370605469	-24.33709335327148	841.7271728515625	373.704833984375	91.98114776611328	888.9949951171875	392.7155151367188	268.4191284179688	891.9586791992188	209.7395477294922	298.4479064941406	433.9796447753906	208.3924255371094	311.4254150390625	588.1348876953125	174.8549346923828	207.3819122314453	28.69078254699707	159.8636932373047	285.8773193359375	275.2507934570312	196.7182312011719	324.9926452636719	40.19463729858398	363.8751831054688	252.3532409667969	45.94873809814453	335.059814453125	327.1435852050781	40.16470718383789	249.5819702148438	134.870361328125	32.27745056152344	160.6165313720703	35.08840942382812	472.5996704101562	446.7589111328125	12.15150833129883	717.3160400390625	432.3680114746094	-232.7476806640625	236.2803649902344	205.6544036865234	-52.15112686157227	372.6952514648438	389.5399475097656	-116.9080505371094	63.11734008789062	232.0186462402344	-118.7731628417969	117.6891403198242	186.0581970214844	-200.7556762695312	118.3964233398438	254.0222473144531	-229.6775665283203	295.3829345703125	151.7523193359375	
264	2.63	-17.87860679626465	942.9371948242188	192.3612518310547	75.01190948486328	946.7125244140625	83.64149475097656	27.4492244720459	1049.257080078125	159.2537078857422	257.1249389648438	1238.973754882812	312.2165222167969	17.07944679260254	1174.333251953125	148.2005004882812	73.53270721435547	1440.0341796875	197.0842132568359	233.0446014404297	1353.556030273438	286.4837341308594	-35.02133941650391	1325.58349609375	242.2982177734375	101.9305114746094	1393.323364257812	95.94412231445312	233.7343139648438	1408.881591796875	88.56071472167969	281.2802124023438	1289.023071289062	2.90839672088623	315.5181274414062	1071.033569335938	-7.706847667694092	212.3259887695312	1059.856811523438	-7.744041442871094	339.2358093261719	863.2801513671875	70.9661865234375	340.9309997558594	851.3349609375	-2.220813751220703	333.80908203125	982.3925170898438	-4.393939971923828	328.1045532226562	694.0281372070312	62.79718399047852	337.4245910644531	769.2714233398438	-0.1480268985033035	348.2737426757812	771.3598022460938	70.06259155273438	45.28920364379883	1412.450317382812	370.8988952636719	-11.08715438842773	1352.636840820312	426.8583679199219	-45.21539688110352	1068.157470703125	480.0343017578125	-73.90840911865234	1056.903686523438	418.7880554199219	34.78435516357422	849.2181396484375	481.0091552734375	-50.55440902709961	849.1866455078125	501.9664001464844	-53.88835525512695	1010.735656738281	488.909912109375	-1.891220450401306	693.3146362304688	469.8101501464844	22.39164924621582	747.35400390625	487.8438110351562	-51.8973388671875	760.6044921875	498.5414123535156	101.7624664306641	1637.662353515625	302.8109436035156	299.3298645019531	1646.867797851562	242.5845031738281	229.1442565917969	1655.623779296875	352.726318359375	183.8755798339844	1630.751831054688	143.9492950439453	262.2767944335938	848.0986328125	92.60663604736328	-14.57111072540283	844.05322265625	380.5570373535156	101.7605285644531	891.4203491210938	396.6521606445312	276.739013671875	892.8756713867188	212.1980438232422	300.5049438476562	433.4049682617188	208.4374847412109	314.7976684570312	587.5227661132812	175.5923156738281	207.322021484375	28.68359565734863	159.8549652099609	287.0287475585938	274.807373046875	196.5927734375	325.0413818359375	40.19073104858398	363.8095092773438	252.4592895507812	46.00682067871094	334.9792175292969	327.240478515625	40.10690689086914	249.4847869873047	134.8108367919922	32.26230621337891	160.6907196044922	52.14938354492188	476.0073852539062	457.4501342773438	24.8128833770752	720.4365844726562	440.2471008300781	-212.2376251220703	234.0065765380859	217.4730834960938	-33.81200790405273	374.8229675292969	400.565185546875	-91.73467254638672	64.41170501708984	247.0119171142578	-95.02834320068359	118.2267913818359	199.9958801269531	-177.0677795410156	117.9828186035156	267.9346008300781	-210.6397552490234	292.5528259277344	162.7069396972656	
265	2.64	-10.58287334442139	943.9513549804688	198.1246643066406	81.26802825927734	947.7205200195312	88.55010223388672	34.94331741333008	1050.7314453125	163.544677734375	264.6856994628906	1240.307373046875	316.6348266601562	25.06709480285645	1175.80078125	152.2206573486328	81.62227630615234	1441.48388671875	201.2124786376953	240.5705108642578	1354.985961914062	291.2473754882812	-27.13091468811035	1327.060302734375	245.7897644042969	110.4451370239258	1394.939453125	100.003173828125	242.2021179199219	1410.60400390625	93.50656127929688	291.2783203125	1291.125732421875	8.388568878173828	328.7356567382812	1073.766479492188	-1.602986216545105	225.5252380371094	1061.04296875	-3.035519123077393	355.6174011230469	867.4381103515625	78.55496215820312	357.8571472167969	854.8787231445312	5.502682209014893	348.4598083496094	985.4906005859375	2.412455320358276	350.7154235839844	698.0035400390625	71.95101165771484	357.3148193359375	773.0047607421875	8.265254020690918	367.9952087402344	776.16162109375	78.44507598876953	52.52306365966797	1413.755493164062	374.8731689453125	-4.49188756942749	1354.200439453125	430.3119506835938	-41.81196975708008	1070.021484375	482.4659118652344	-70.11132049560547	1059.217651367188	420.9665222167969	35.98305892944336	850.4710083007812	483.8304748535156	-49.49713134765625	851.0364990234375	503.5631408691406	-51.10617065429688	1012.65966796875	491.10205078125	-1.630144596099854	694.8831787109375	471.8108520507812	22.77888488769531	748.6756591796875	490.4007568359375	-51.56991577148438	762.4358520507812	499.9631652832031	109.4562683105469	1638.910400390625	307.574462890625	307.1893310546875	1648.248291015625	247.8885192871094	236.7723083496094	1656.868774414062	357.8341979980469	191.9859313964844	1632.149536132812	148.8487548828125	268.0107727050781	848.5158081054688	95.23977661132812	-4.74716854095459	846.397216796875	387.6162109375	111.5658798217773	893.741455078125	400.5733642578125	284.93310546875	893.7037963867188	214.5761108398438	302.4418029785156	432.8588562011719	208.4535064697266	318.0157775878906	586.9292602539062	176.2925262451172	207.2698516845703	28.68944358825684	159.8610992431641	288.0795288085938	274.3794250488281	196.4449310302734	325.0909729003906	40.18370056152344	363.7567138671875	252.5754852294922	46.06814956665039	334.9079284667969	327.346923828125	40.05282211303711	249.3969421386719	134.7330932617188	32.2447624206543	160.7905120849609	69.03195953369141	479.3846740722656	467.7789611816406	37.3830451965332	723.616943359375	448.0355834960938	-191.4142608642578	230.5650939941406	229.5000152587891	-15.47776222229004	376.5580139160156	411.4104614257812	-65.99903106689453	65.15412902832031	262.3399658203125	-70.79437255859375	117.9455947875977	214.2162170410156	-152.9078063964844	116.6240615844727	282.0504150390625	-191.2926788330078	288.4145812988281	173.7671813964844	
